Wth: Cillian Murphy, Thandie Newton and Jamie Bell

In een laatste poging om hun huwelijk te redden vestigen Martin en Kate Badenoch zich op het prachtige onbewoonde eiland Dinnish in het Verenigd Koninkrijk, een plek waar ze ooit een romantische vakantie doorgebracht hebben. Op een dag spoelt na een hevige storm een Amerikaanse soldaat aan op het strand, die een beschermend pak tegen biologische wapens draagt. Communicatie met het vasteland is niet meer mogelijk. De soldaat brengt het nieuws dat er een catastrofale ramp heeft plaatsgevonden en iedereen is gedood door een virus dat zich door de lucht verspreidt. Maar wie is deze soldaat?

Kate and Martin escape from personal tragedy to an Island Retreat. Cut off from the outside world, their attempts to recover are shattered when a Man is washed ashore, with news of airborne killer disease that is sweeping through Europe. 

------------------------ Dutch Friends ------------------------
---------------------------------------------------------------
- Bezoek ook eens mijn vrienden op:  http://www.Film-Test.nl --
----- voor mijn Nederlandse Sync. ondertitels ---- en meer ----
------- http://www.Film-Test.nl ---- voor Films en meer -------
---------------------------------------------------------------

General:

Complete name                    : Retreat\Retreat.avi
Format                           : AVI
Format/Info                      : Audio Video Interleave
File size                        : 1.11 GiB
Duration                         : 1h 29mn
Overall bit rate                 : 1 770 Kbps

Video:

Format                           : MPEG-4 Visual
Format profile                   : Simple@L3
Format settings, BVOP            : No
Format settings, QPel            : No
Format settings, GMC             : No warppoints
Format settings, Matrix          : Default (H.263)
Codec ID                         : XVID
Codec ID/Hint                    : XviD
Duration                         : 1h 29mn
Bit rate                         : 1 311 Kbps
Width                            : 720 pixels
Height                           : 304 pixels
Display aspect ratio             : 2.35:1
Frame rate                       : 23.976 fps
Color space                      : YUV
Chroma subsampling               : 4:2:0
Bit depth                        : 8 bits
Scan type                        : Progressive
Compression mode                 : Lossy
Bits/(Pixel*Frame)               : 0.250
Stream size                      : 842 MiB (74%)
Writing library                  : XviD 1.1.2 (UTC 2006-11-01)

Audio:

Format                           : AC-3
Format/Info                      : Audio Coding 3
Mode extension                   : CM (complete main)
Codec ID                         : 2000
Duration                         : 1h 29mn
Bit rate mode                    : Constant
Bit rate                         : 448 Kbps
Channel(s)                       : 6 channels
Channel positions                : Front: L C R, Side: L R, LFE
Sampling rate                    : 48.0 KHz
Bit depth                        : 16 bits
Compression mode                 : Lossy
Stream size                      : 288 MiB (25%)
Alignment                        : Aligned on interleaves
Interleave, duration             : 32 ms (0.77 video frame)
Interleave, preload duration     : 320 ms

